<?xml version='1.0' encoding='utf-8'?>
<svg xmlns="http://www.w3.org/2000/svg" id="svg15" height="180.23mm" width="180.13mm" version="1.0"> <metadata id="metadata19"> </metadata> <defs id="defs3"> <pattern y="0" x="0" height="6" width="6" patternUnits="userSpaceOnUse" id="EMFhbasepattern"/> </defs> <path id="path5" d=" M 0.079946483,340.01239 C 0.079946483,152.29805 152.29805,0.079946483 340.01239,0.079946483 C 527.76671,0.079946483 679.94484,152.29805 679.94484,340.01239 C 679.94484,527.76671 527.76671,679.94484 340.01239,679.94484 C 152.29805,679.94484 0.079946483,527.76671 0.079946483,340.01239 z " style="fill:#ff0000;fill-rule:evenodd;fill-opacity:1;stroke:none;"/> <path id="path7" d=" M 37.974579,340.01239 C 37.974579,173.12411 173.24403,37.814686 340.09234,37.814686 C 506.98062,37.814686 642.2101,173.12411 642.2101,340.01239 C 642.2101,506.94065 506.98062,642.2101 340.09234,642.2101 C 173.24403,642.2101 37.974579,506.94065 37.974579,340.01239 z " style="fill:#ffffff;fill-rule:evenodd;fill-opacity:1;stroke:none;"/> <path id="path9" d=" M 94.576689,340.01239 C 94.576689,204.46313 204.5031,94.576689 340.09234,94.576689 C 475.72155,94.576689 585.60799,204.46313 585.60799,340.01239 C 585.60799,475.56165 475.72155,585.4481 340.09234,585.4481 C 204.5031,585.4481 94.576689,475.56165 94.576689,340.01239 z " style="fill:#ff0000;fill-rule:evenodd;fill-opacity:1;stroke:none;"/> <path id="path11" d=" M 141.74511,340.01239 C 141.74511,230.52568 230.56566,141.74511 340.09234,141.74511 C 449.65899,141.74511 538.43956,230.52568 538.43956,340.01239 C 538.43956,449.53907 449.65899,538.27967 340.09234,538.27967 C 230.56566,538.27967 141.74511,449.53907 141.74511,340.01239 z " style="fill:#0572b9;fill-rule:evenodd;fill-opacity:1;stroke:none;"/> <path id="path13" d=" M 153.09751,278.81336 L 295.96188,278.81336 L 340.09234,141.74511 L 384.26277,278.81336 L 527.08716,278.81336 L 411.52452,363.51666 L 455.69495,500.54493 L 340.09234,415.84163 L 224.5297,500.54493 L 268.70013,363.51666 z " style="fill:#ffffff;fill-rule:evenodd;fill-opacity:1;stroke:none;"/> </svg>